<?xml version="1.0" encoding="iso-8859-1"?>
<!-- Generator: Adobe Illustrator 19.0.0, SVG Export Plug-In . SVG Version: 6.00 Build 0)  -->
<svg version="1.1" id="Capa_1" xmlns="http://www.w3.org/2000/svg" xmlns:xlink="http://www.w3.org/1999/xlink" x="0px" y="0px"
	 viewBox="0 0 512 512" style="enable-background:new 0 0 512 512;" xml:space="preserve">
<path style="fill:#FFB125;" d="M184.288,445.324h143.437c-59.415-91.037-53.215-222.24-53.215-222.24h-18.503h-18.503
	C237.503,223.084,243.703,354.287,184.288,445.324z"/>
<path style="fill:#FF901D;" d="M274.509,223.084h-18.503h-18.503c0,0,0.87,18.424-1.168,46.254
	c-2.604,35.56,1.122,71.366,11.912,105.35c7.708,24.279,18.236,48.631,32.598,70.637h46.879
	C268.309,354.287,274.509,223.084,274.509,223.084z"/>
<path style="fill:#FFB125;" d="M270.279,299.494h-28.546c-14.75,0-26.707-11.957-26.707-26.707v-35.731h81.961v35.731
	C296.986,287.536,285.029,299.494,270.279,299.494z"/>
<path style="fill:#FF901D;" d="M250.623,237.055v35.731c0,11.625-7.43,21.51-17.798,25.179c2.787,0.986,5.784,1.528,8.909,1.528
	h28.546c14.75,0,26.707-11.957,26.707-26.707v-35.731L250.623,237.055L250.623,237.055z"/>
<path style="fill:#2C5871;" d="M378.106,512H133.907c-4.315,0-7.557-3.937-6.73-8.172l12.941-66.229
	c0.629-3.219,3.45-5.542,6.73-5.542h218.316c3.28,0,6.101,2.323,6.73,5.542l12.941,66.229C385.663,508.063,382.42,512,378.106,512z"
	/>
<path style="fill:#1D4859;" d="M384.836,503.828l-12.942-66.229c-0.629-3.219-3.45-5.542-6.73-5.542h-40.717L340.068,512h38.037
	C382.421,512,385.663,508.063,384.836,503.828z"/>
<path style="fill:#E1EFFB;" d="M157.166,479.296l3.342-17.103c0.614-3.142,3.367-5.409,6.569-5.409h177.859
	c3.202,0,5.955,2.267,6.569,5.409l3.342,17.103c0.808,4.133-2.357,7.977-6.569,7.977H163.735
	C159.523,487.272,156.358,483.429,157.166,479.296z"/>
<path style="fill:#C3D8E5;" d="M354.846,479.296l-3.342-17.103c-0.614-3.142-3.367-5.409-6.569-5.409h-40.852l5.957,30.489h38.237
	C352.489,487.272,355.654,483.429,354.846,479.296z"/>
<path style="fill:#AF8A82;" d="M429.253,49.122c27.216,57.675-37.095,145.187-123.974,186.184s-195.315,35-222.531-22.674
	S119.842,67.444,206.722,26.447S402.037-8.553,429.253,49.122z"/>
<path style="fill:#927266;" d="M429.253,49.122c-6.574-13.932-17.898-24.839-32.502-32.806c0.099,0.205,0.208,0.403,0.305,0.609
	c27.216,57.675-37.095,145.187-123.974,186.184c-65.893,31.094-144.175,35.146-190.028,10.132
	c27.695,57.101,135.657,62.916,222.226,22.066C392.158,194.309,456.468,106.796,429.253,49.122z"/>
<path style="fill:#E0E0D1;" d="M155.958,258.949c12.142,2.103,25.157,3.014,38.667,2.755L115.996,95.077
	c-8.788,10.263-16.36,20.889-22.456,31.598L155.958,258.949z"/>
<path style="fill:#927266;" d="M429.253,49.122c-6.574-13.932-17.898-24.839-32.502-32.806c0.099,0.205,0.208,0.403,0.305,0.609
	c27.216,57.675-37.095,145.187-123.974,186.184c-65.893,31.094-144.175,35.146-190.028,10.132
	c27.695,57.101,135.657,62.916,222.226,22.066C392.158,194.309,456.468,106.796,429.253,49.122z"/>
<path style="fill:#CECEC0;" d="M194.148,261.707c0.158-0.003,0.316-0.005,0.474-0.008l-15.616-33.094
	c-12.795,1.11-25.295,1.226-37.21,0.332l14.158,30.002c0.146,0.025,0.291,0.053,0.438,0.078c1.29,0.22,2.588,0.428,3.896,0.622
	c0.101,0.015,0.2,0.032,0.301,0.047c1.438,0.21,2.888,0.4,4.347,0.578c0.358,0.044,0.72,0.082,1.08,0.123
	c1.113,0.129,2.231,0.25,3.356,0.361c0.429,0.042,0.86,0.082,1.29,0.121c1.129,0.103,2.264,0.197,3.404,0.282
	c0.361,0.027,0.721,0.056,1.083,0.081c3.073,0.212,6.184,0.361,9.329,0.44c0.154,0.004,0.309,0.005,0.463,0.009
	c1.408,0.033,2.824,0.052,4.245,0.058c0.301,0.001,0.604,0.001,0.906,0.001C191.439,261.742,192.791,261.731,194.148,261.707z"/>
<path style="fill:#E0E0D1;" d="M396.031,166.644c8.777-10.253,16.339-20.868,22.429-31.565L356.042,2.804
	c-12.129-2.1-25.13-3.012-38.624-2.755L396.031,166.644z"/>
<path style="fill:#CECEC0;" d="M394.927,85.208c-4.916,11.969-11.846,24.029-20.436,35.789l21.54,45.648
	c0.002-0.002,0.003-0.004,0.005-0.006c1.05-1.227,2.081-2.46,3.096-3.697c0.089-0.108,0.177-0.217,0.266-0.325
	c0.99-1.211,1.964-2.426,2.92-3.646c0.031-0.039,0.062-0.078,0.093-0.118c2.027-2.591,3.976-5.2,5.841-7.823
	c0.001-0.002,0.003-0.004,0.004-0.006c0.882-1.24,1.742-2.484,2.586-3.73c0.116-0.172,0.231-0.343,0.347-0.515
	c0.761-1.131,1.506-2.264,2.236-3.398c0.1-0.155,0.201-0.311,0.301-0.466c1.663-2.604,3.244-5.217,4.734-7.834L394.927,85.208z"/>
<path style="fill:#E0E0D1;" d="M311.6,121.322c1.319,2.794,4.096,4.432,6.994,4.432c1.105,0,2.228-0.238,3.292-0.741
	c3.86-1.821,5.513-6.426,3.692-10.286l-3.141-6.656l6.917-3.264c3.86-1.821,5.513-6.426,3.692-10.286
	c-1.822-3.86-6.43-5.512-10.286-3.691l-6.918,3.264l-3.141-6.656c-1.822-3.86-6.43-5.511-10.286-3.691
	c-3.86,1.821-5.513,6.426-3.692,10.286l3.141,6.656l-23.457,11.069l-3.141-6.656c-1.822-3.86-6.431-5.512-10.286-3.691
	c-3.86,1.821-5.513,6.426-3.692,10.286l3.141,6.656l-23.456,11.069l-3.141-6.656c-1.822-3.86-6.431-5.511-10.286-3.691
	c-3.86,1.821-5.513,6.426-3.692,10.286l3.141,6.656l-23.457,11.069l-3.141-6.656c-1.822-3.86-6.43-5.513-10.286-3.691
	c-3.86,1.821-5.513,6.426-3.692,10.286l3.141,6.656l-6.917,3.264c-3.86,1.821-5.513,6.426-3.692,10.286
	c1.319,2.794,4.096,4.432,6.994,4.432c1.105,0,2.228-0.238,3.292-0.741l6.918-3.264l3.141,6.656
	c1.319,2.794,4.096,4.432,6.994,4.432c1.105,0,2.228-0.238,3.292-0.741c3.86-1.821,5.513-6.426,3.692-10.286l-3.141-6.656
	l23.457-11.069l3.141,6.656c1.319,2.794,4.096,4.432,6.994,4.432c1.105,0,2.228-0.238,3.292-0.741
	c3.86-1.821,5.513-6.426,3.692-10.286l-3.141-6.656l23.456-11.068l3.141,6.656c1.319,2.794,4.096,4.432,6.994,4.432
	c1.105,0,2.228-0.238,3.292-0.741c3.86-1.821,5.513-6.426,3.692-10.286l-3.141-6.656l23.457-11.069L311.6,121.322z"/>
<g>
</g>
<g>
</g>
<g>
</g>
<g>
</g>
<g>
</g>
<g>
</g>
<g>
</g>
<g>
</g>
<g>
</g>
<g>
</g>
<g>
</g>
<g>
</g>
<g>
</g>
<g>
</g>
<g>
</g>
</svg>
