<?xml version="1.0" encoding="UTF-8"?>
<!DOCTYPE svg PUBLIC "-//W3C//DTD SVG 1.1//EN" "http://www.w3.org/Graphics/SVG/1.1/DTD/svg11.dtd">
<!-- Creator: CorelDRAW -->
<svg xmlns="http://www.w3.org/2000/svg" xml:space="preserve" width="0.841067in" height="0.5in" version="1.1" style="shape-rendering:geometricPrecision; text-rendering:geometricPrecision; image-rendering:optimizeQuality; fill-rule:evenodd; clip-rule:evenodd"
viewBox="0 0 207.42 123.31"
 xmlns:xlink="http://www.w3.org/1999/xlink"
 xmlns:xodm="http://www.corel.com/coreldraw/odm/2003">
 <defs>
  <style type="text/css">
   <![CDATA[
    .fil0 {fill:#FEFEFE}
   ]]>
  </style>
 </defs>
 <g id="Layer_x0020_1">
  <metadata id="CorelCorpID_0Corel-Layer"/>
  <g id="_2093898364112">
   <path class="fil0" d="M201.06 88.88c0,0 -35.04,-112.3 -155.34,-84.43 0,0 59.23,-9.02 104.72,28.08 0,0 -28.08,-9.22 -63.94,-1.64 0,0 76.85,-10.86 114.56,58z"/>
   <path class="fil0" d="M207.42 123.31c0,0 -22.34,-88.53 -121.11,-71.32 0,0 47.19,-7.01 81.56,25.21 0,0 -22.95,-9.02 -49.59,-2.87 0,0 58.61,-8.61 89.15,48.98z"/>
   <path class="fil0" d="M190.82 115.52c0,0 -32.34,-39.02 -79.1,-25.62 0,0 17.01,-2.05 28.48,2.66 -25.47,-1.35 -56.88,35.98 -91.19,26.85 0,0 27.05,14.14 63.73,-11.48 0,0 32.23,-25.82 78.08,7.58z"/>
   <polygon class="fil0" points="68.28,22.67 46.29,21.62 32.52,45.19 42.45,60.69 71.59,60.16 81.93,43.07 "/>
   <polygon class="fil0" points="65.73,27.19 76.43,43.2 68.95,55.57 44.96,56.01 37.95,45.08 48.88,26.38 "/>
   <polygon class="fil0" points="71.71,64.66 81.5,78.6 68.95,104.52 45.91,102.79 32.78,81.71 42.46,65.13 "/>
   <polygon class="fil0" points="69.04,69.91 75.49,79.09 65.81,99.07 48.93,97.8 38.85,81.62 45.47,70.28 "/>
   <path class="fil0" d="M28.68 84.13l12.94 21.19 -5.81 10.7c0,0 -19.26,-6.52 -28.12,-24.96l5.91 -12.84 15.08 5.91z"/>
   <path class="fil0" d="M27.11 85.99l11.85 19.4 -4.21 7.75c-0.4,-0.18 -0.8,-0.36 -1.19,-0.54 -2.52,-1.16 -4.96,-2.55 -7.27,-4.08 -6.7,-4.46 -12.37,-10.32 -16.06,-17.5l4.54 -9.87 12.34 4.84z"/>
   <path class="fil0" d="M17.01 51.94l-2.34 1.83 -0.1 20.28 13.86 5.3 1.94 -1.94c0,0 -15.79,-3.36 -13.35,-25.47z"/>
   <path class="fil0" d="M3.27 43.36l7.32 9.01 -0.39 22.96 -5.08 11.25c0,0 -10.17,-18.41 -1.85,-43.22z"/>
   <path class="fil0" d="M4.17 47.88l4.25 5.24 -0.36 21.73 -2.88 6.37c-0.86,-2.41 -1.52,-4.91 -2.01,-7.42 -1.68,-8.65 -1.25,-17.46 1,-25.92z"/>
   <path class="fil0" d="M33.78 8.66l8.05 10.7 -14.27 24.56 -14.37 5.6 -8.66 -10.7c0,0 9.17,-20.89 29.24,-30.16z"/>
   <path class="fil0" d="M32.77 12.93l5.02 6.67 -12.55 21.6 -10.97 4.28 -5.77 -7.13c1.62,-3.17 3.85,-6.5 5.85,-9.16 4.96,-6.58 11.14,-12.36 18.42,-16.26z"/>
  </g>
 </g>
</svg>
