<?xml version="1.0" encoding="UTF-8"?>
<!DOCTYPE svg PUBLIC "-//W3C//DTD SVG 1.1//EN" "http://www.w3.org/Graphics/SVG/1.1/DTD/svg11.dtd">
<!-- Creator: CorelDRAW -->
<svg xmlns="http://www.w3.org/2000/svg" xml:space="preserve" width="3.15109in" height="0.739894in" version="1.1" style="shape-rendering:geometricPrecision; text-rendering:geometricPrecision; image-rendering:optimizeQuality; fill-rule:evenodd; clip-rule:evenodd"
viewBox="0 0 2911.43 683.62"
 xmlns:xlink="http://www.w3.org/1999/xlink"
 xmlns:xodm="http://www.corel.com/coreldraw/odm/2003">
 <defs>
  <style type="text/css">
   <![CDATA[
    .str0 {stroke:#FEFEFE;stroke-width:64.16;stroke-linecap:round;stroke-linejoin:round;stroke-miterlimit:2.61313}
    .fil1 {fill:none;fill-rule:nonzero}
    .fil0 {fill:#F7B900}
    .fil2 {fill:#F7B900;fill-rule:nonzero}
   ]]>
  </style>
 </defs>
 <g id="Layer_x0020_1">
  <metadata id="CorelCorpID_0Corel-Layer"/>
  <g id="_2233600917408">
   <g>
    <path class="fil0" d="M753.29 443.81c0,0 -131.29,-420.75 -581.99,-316.33 0,0 221.89,-33.78 392.34,105.19 0,0 -105.19,-34.55 -239.55,-6.14 0,0 287.92,-40.69 429.19,217.28z"/>
    <path class="fil0" d="M777.1 572.8c0,0 -83.69,-331.69 -453.76,-267.19 0,0 176.81,-26.27 305.58,94.44 0,0 -85.99,-33.78 -185.8,-10.75 0,0 219.59,-32.25 333.99,183.5z"/>
    <path class="fil0" d="M714.9 543.62c0,0 -121.15,-146.21 -296.36,-95.97 0,0 63.72,-7.68 106.72,9.98 -95.41,-5.05 -213.12,134.79 -341.66,100.58 0,0 101.35,52.98 238.78,-43 0,0 120.76,-96.72 292.53,28.41z"/>
    <polygon class="fil0" points="255.82,195.78 173.44,191.81 121.83,280.14 159.05,338.2 268.23,336.22 306.94,272.2 "/>
    <polygon class="fil0" points="246.25,212.71 286.35,272.67 258.32,319.03 168.43,320.66 142.19,279.72 183.12,209.66 "/>
    <polygon class="fil0" points="268.68,353.09 305.35,405.31 258.32,502.4 172.01,495.93 122.82,416.96 159.06,354.82 "/>
    <polygon class="fil0" points="258.66,372.74 282.82,407.13 246.56,481.98 183.32,477.24 145.56,416.63 170.36,374.13 "/>
    <path class="fil0" d="M107.43 426.02l48.48 79.4 -21.76 40.08c0,0 -72.15,-24.43 -105.36,-93.53l22.14 -48.1 56.5 22.14z"/>
    <path class="fil0" d="M101.58 433l44.38 72.68 -15.76 29.04c-1.52,-0.66 -3.01,-1.34 -4.45,-2.01 -9.44,-4.36 -18.6,-9.54 -27.25,-15.3 -25.1,-16.7 -46.35,-38.68 -60.15,-65.57l17.01 -36.96 46.22 18.12z"/>
    <path class="fil0" d="M63.73 305.44l-8.78 6.87 -0.38 75.97 51.92 19.85 7.25 -7.25c0,0 -59.17,-12.6 -50.01,-95.44z"/>
    <path class="fil0" d="M12.26 273.27l27.42 33.77 -1.44 86.02 -19.05 42.14c0,0 -38.1,-68.99 -6.93,-161.94z"/>
    <path class="fil0" d="M15.61 290.23l15.93 19.62 -1.36 81.4 -10.79 23.87c-3.22,-9.04 -5.71,-18.41 -7.53,-27.79 -6.29,-32.41 -4.68,-65.41 3.75,-97.11z"/>
    <path class="fil0" d="M126.54 143.28l30.16 40.09 -53.45 92 -53.83 21 -32.45 -40.08c0,0 34.36,-78.26 109.56,-113z"/>
    <path class="fil0" d="M122.76 159.29l18.79 24.98 -47.01 80.93 -41.1 16.03 -21.62 -26.71c6.07,-11.88 14.44,-24.37 21.93,-34.32 18.57,-24.64 41.72,-46.3 69,-60.91z"/>
   </g>
   <g>
    <path class="fil1 str0" d="M869.75 651.54l127.31 0 0 -250.35 102.53 0 0 -106.8 -102.53 0 0 -146.96 135 0 -21.36 -115.35 -240.95 0 0 619.45zm300.75 0l123.89 0 0 -619.45 -123.89 0 0 619.45zm175.16 0l127.31 0 0 -250.35 102.53 0 0 -106.8 -102.53 0 0 -146.96 135 0 -21.36 -115.35 -240.95 0 0 619.45zm463.95 -76.9l11.11 76.9 124.75 0 -111.93 -619.45 -132.44 0 -111.93 619.45 124.74 0 11.11 -76.9 84.59 0zm-41.87 -317.84l28.2 219.59 -57.25 0 29.05 -219.59zm211.9 394.74l127.31 0 0 -250.35 102.53 0 0 -106.8 -102.53 0 0 -146.96 135 0 -21.36 -115.35 -240.95 0 0 619.45zm578.44 -543.41c0,-48.7 -31.61,-76.04 -72.62,-76.04l-187.98 0 -21.36 115.35 151.23 0c6.84,0 11.96,3.42 11.96,11.11l0 81.17c0,5.13 -0.85,8.54 -8.54,13.67l-117.06 89.71c-30.76,19.65 -40.16,46.14 -40.16,85.44l0 223.01 251.2 0 22.21 -115.35 -149.52 0 0 -96.55c0,-5.98 0.85,-11.11 5.98,-14.52l117.06 -93.13c28.19,-18.8 37.59,-34.18 37.59,-65.79l0 -158.07zm321.26 0c0,-48.7 -31.61,-76.04 -72.62,-76.04l-187.98 0 -21.36 115.35 151.23 0c6.84,0 11.96,3.42 11.96,11.11l0 81.17c0,5.13 -0.85,8.54 -8.54,13.67l-117.06 89.71c-30.76,19.65 -40.16,46.14 -40.16,85.44l0 223.01 251.2 0 22.21 -115.35 -149.52 0 0 -96.55c0,-5.98 0.85,-11.11 5.98,-14.52l117.06 -93.13c28.19,-18.8 37.59,-34.18 37.59,-65.79l0 -158.07z"/>
    <path id="_1" class="fil2" d="M869.75 651.54l127.31 0 0 -250.35 102.53 0 0 -106.8 -102.53 0 0 -146.96 135 0 -21.36 -115.35 -240.95 0 0 619.45zm300.75 0l123.89 0 0 -619.45 -123.89 0 0 619.45zm175.16 0l127.31 0 0 -250.35 102.53 0 0 -106.8 -102.53 0 0 -146.96 135 0 -21.36 -115.35 -240.95 0 0 619.45zm463.95 -76.9l11.11 76.9 124.75 0 -111.93 -619.45 -132.44 0 -111.93 619.45 124.74 0 11.11 -76.9 84.59 0zm-41.87 -317.84l28.2 219.59 -57.25 0 29.05 -219.59zm211.9 394.74l127.31 0 0 -250.35 102.53 0 0 -106.8 -102.53 0 0 -146.96 135 0 -21.36 -115.35 -240.95 0 0 619.45zm578.44 -543.41c0,-48.7 -31.61,-76.04 -72.62,-76.04l-187.98 0 -21.36 115.35 151.23 0c6.84,0 11.96,3.42 11.96,11.11l0 81.17c0,5.13 -0.85,8.54 -8.54,13.67l-117.06 89.71c-30.76,19.65 -40.16,46.14 -40.16,85.44l0 223.01 251.2 0 22.21 -115.35 -149.52 0 0 -96.55c0,-5.98 0.85,-11.11 5.98,-14.52l117.06 -93.13c28.19,-18.8 37.59,-34.18 37.59,-65.79l0 -158.07zm321.26 0c0,-48.7 -31.61,-76.04 -72.62,-76.04l-187.98 0 -21.36 115.35 151.23 0c6.84,0 11.96,3.42 11.96,11.11l0 81.17c0,5.13 -0.85,8.54 -8.54,13.67l-117.06 89.71c-30.76,19.65 -40.16,46.14 -40.16,85.44l0 223.01 251.2 0 22.21 -115.35 -149.52 0 0 -96.55c0,-5.98 0.85,-11.11 5.98,-14.52l117.06 -93.13c28.19,-18.8 37.59,-34.18 37.59,-65.79l0 -158.07z"/>
   </g>
  </g>
 </g>
</svg>
