<?xml version="1.0" encoding="UTF-8"?>
<!DOCTYPE svg PUBLIC "-//W3C//DTD SVG 1.1//EN" "http://www.w3.org/Graphics/SVG/1.1/DTD/svg11.dtd">
<!-- Creator: CorelDRAW -->
<svg xmlns="http://www.w3.org/2000/svg" xml:space="preserve" width="3.11636in" height="0.670445in" version="1.1" style="shape-rendering:geometricPrecision; text-rendering:geometricPrecision; image-rendering:optimizeQuality; fill-rule:evenodd; clip-rule:evenodd"
viewBox="0 0 2847.62 612.63"
 xmlns:xlink="http://www.w3.org/1999/xlink"
 xmlns:xodm="http://www.corel.com/coreldraw/odm/2003">
 <defs>
  <style type="text/css">
   <![CDATA[
    .fil0 {fill:#FEFEFE}
    .fil1 {fill:#FEFEFE;fill-rule:nonzero}
   ]]>
  </style>
 </defs>
 <g id="Layer_x0020_1">
  <metadata id="CorelCorpID_0Corel-Layer"/>
  <g id="_2233598949328">
   <path class="fil0" d="M744.99 407.19c0,0 -129.85,-416.11 -575.57,-312.84 0,0 219.45,-33.41 388.02,104.03 0,0 -104.03,-34.17 -236.91,-6.07 0,0 284.75,-40.25 424.46,214.89z"/>
   <path class="fil0" d="M768.53 534.76c0,0 -82.77,-328.03 -448.76,-264.25 0,0 174.86,-25.98 302.21,93.4 0,0 -85.04,-33.41 -183.76,-10.63 0,0 217.17,-31.89 330.31,181.48z"/>
   <path class="fil0" d="M707.03 505.9c0,0 -119.82,-144.59 -293.1,-94.92 0,0 63.02,-7.59 105.54,9.87 -94.36,-4.99 -210.77,133.3 -337.9,99.47 0,0 100.23,52.39 236.15,-42.52 0,0 119.43,-95.66 289.3,28.09z"/>
   <polygon class="fil0" points="253,161.89 171.53,157.97 120.49,245.32 157.3,302.75 265.27,300.78 303.55,237.47 "/>
   <polygon class="fil0" points="243.53,178.63 283.2,237.94 255.48,283.78 166.58,285.4 140.63,244.91 181.1,175.62 "/>
   <polygon class="fil0" points="265.71,317.47 301.99,369.11 255.47,465.13 170.11,458.73 121.46,380.64 157.31,319.18 "/>
   <polygon class="fil0" points="255.81,336.9 279.7,370.91 243.84,444.94 181.3,440.25 143.96,380.31 168.48,338.28 "/>
   <path class="fil0" d="M106.25 389.6l47.95 78.53 -21.52 39.64c0,0 -71.36,-24.16 -104.2,-92.5l21.9 -47.57 55.88 21.89z"/>
   <path class="fil0" d="M100.46 396.49l43.89 71.88 -15.59 28.72c-1.5,-0.65 -2.98,-1.32 -4.4,-1.99 -9.34,-4.31 -18.39,-9.43 -26.95,-15.13 -24.82,-16.52 -45.84,-38.25 -59.49,-64.84l16.83 -36.55 45.71 17.92z"/>
   <path class="fil0" d="M63.03 270.34l-8.68 6.8 -0.38 75.13 51.35 19.63 7.17 -7.17c0,0 -58.52,-12.46 -49.46,-94.38z"/>
   <path class="fil0" d="M12.13 238.53l27.12 33.4 -1.43 85.07 -18.84 41.68c0,0 -37.68,-68.23 -6.85,-160.15z"/>
   <path class="fil0" d="M15.44 255.3l15.76 19.41 -1.35 80.5 -10.67 23.61c-3.19,-8.94 -5.64,-18.21 -7.45,-27.49 -6.22,-32.05 -4.63,-64.69 3.71,-96.04z"/>
   <path class="fil0" d="M125.15 109.97l29.83 39.64 -52.86 90.99 -53.24 20.76 -32.09 -39.64c0,0 33.98,-77.4 108.36,-111.76z"/>
   <path class="fil0" d="M121.4 125.8l18.58 24.7 -46.49 80.04 -40.64 15.85 -21.38 -26.41c6.01,-11.75 14.28,-24.1 21.69,-33.94 18.36,-24.37 41.26,-45.79 68.24,-60.24z"/>
  </g>
  <path class="fil1" d="M860.17 612.63l125.9 0 0 -247.59 101.4 0 0 -105.63 -101.4 0 0 -145.34 133.51 0 -21.12 -114.08 -238.29 0 0 612.63zm297.44 0l122.52 0 0 -612.63 -122.52 0 0 612.63zm173.23 0l125.9 0 0 -247.59 101.4 0 0 -105.63 -101.4 0 0 -145.34 133.51 0 -21.12 -114.08 -238.29 0 0 612.63zm458.83 -76.05l10.98 76.05 123.37 0 -110.69 -612.63 -130.98 0 -110.69 612.63 123.37 0 10.99 -76.05 83.66 0zm-41.41 -314.34l27.89 217.17 -56.62 0 28.73 -217.17zm209.56 390.39l125.9 0 0 -247.59 101.4 0 0 -105.63 -101.4 0 0 -145.34 133.51 0 -21.12 -114.08 -238.29 0 0 612.63zm572.07 -537.42c0,-48.17 -31.27,-75.21 -71.82,-75.21l-185.9 0 -21.12 114.08 149.57 0c6.76,0 11.83,3.38 11.83,10.98l0 80.27c0,5.07 -0.85,8.45 -8.45,13.52l-115.77 88.72c-30.42,19.43 -39.71,45.63 -39.71,84.5l0 220.55 248.43 0 21.97 -114.08 -147.87 0 0 -95.48c0,-5.91 0.85,-10.99 5.91,-14.36l115.77 -92.11c27.88,-18.59 37.18,-33.8 37.18,-65.06l0 -156.33zm317.72 0c0,-48.17 -31.27,-75.21 -71.82,-75.21l-185.9 0 -21.12 114.08 149.57 0c6.76,0 11.83,3.38 11.83,10.98l0 80.27c0,5.07 -0.85,8.45 -8.45,13.52l-115.77 88.72c-30.42,19.43 -39.71,45.63 -39.71,84.5l0 220.55 248.43 0 21.97 -114.08 -147.87 0 0 -95.48c0,-5.91 0.85,-10.99 5.91,-14.36l115.77 -92.11c27.88,-18.59 37.18,-33.8 37.18,-65.06l0 -156.33z"/>
 </g>
</svg>
