<?xml version="1.0" encoding="iso-8859-1"?>
<!-- Generator: Adobe Illustrator 19.0.0, SVG Export Plug-In . SVG Version: 6.00 Build 0)  -->
<svg version="1.1" id="Capa_1" xmlns="http://www.w3.org/2000/svg" xmlns:xlink="http://www.w3.org/1999/xlink" x="0px" y="0px"
	 viewBox="0 0 512 512" style="enable-background:new 0 0 512 512;" xml:space="preserve">
<path style="fill:#10C4C4;" d="M406.779,4.318C405.077,1.63,402.117,0,398.936,0H256H113.064c-3.181,0-6.141,1.629-7.843,4.318
	l-67.6,106.8c-2.101,3.319-1.885,7.602,0.54,10.693l210.536,268.373c3.716,4.737,10.889,4.737,14.606,0l210.536-268.373
	c2.425-3.091,2.641-7.374,0.54-10.693L406.779,4.318z"/>
<path style="fill:#21D8DE;" d="M105.221,4.318l-1.155,1.825L37.621,111.118c-1.07,1.691-1.532,3.631-1.414,5.537h439.585
	c0.118-1.906-0.343-3.846-1.414-5.537L407.934,6.143l-1.155-1.825C405.077,1.63,402.117,0,398.936,0H256H113.064
	C109.883,0,106.923,1.63,105.221,4.318z"/>
<g>
	<polygon style="fill:#25F2F2;" points="255.429,0 181.12,116.648 256,116.648 329.737,116.648 	"/>
	<path style="fill:#25F2F2;" d="M329.737,116.648l146.056,0.007c0,0,0,0,0-0.001c0.058-0.937-0.028-1.882-0.253-2.802
		c-0.004-0.016-0.005-0.033-0.009-0.049c-0.104-0.412-0.247-0.816-0.409-1.214c-0.022-0.055-0.034-0.112-0.057-0.166
		c-0.191-0.447-0.42-0.884-0.686-1.305l-13.694-21.636l-44.027-69.558l-9.879-15.607c-0.216-0.341-0.452-0.664-0.706-0.969
		c-0.029-0.034-0.062-0.063-0.092-0.097c-0.231-0.269-0.471-0.529-0.73-0.768c-0.006-0.005-0.012-0.009-0.018-0.015
		c-0.575-0.53-1.213-0.985-1.898-1.353l0,0L329.737,116.648z"/>
	<path style="fill:#25F2F2;" d="M108.664,1.115c-1.382,0.744-2.576,1.834-3.443,3.203L81.478,41.83l-43.856,69.288
		c-1.07,1.691-1.532,3.631-1.414,5.537l146.056-0.007L108.664,1.115z"/>
</g>
<g>
	<path style="fill:#21D8DE;" d="M182.263,116.648H36.207c0.112,1.838,0.764,3.644,1.955,5.162l210.536,268.374
		c1.507,1.92,3.583,3.048,5.765,3.412L182.263,116.648z"/>
	<path style="fill:#21D8DE;" d="M473.839,121.811c0.299-0.381,0.562-0.78,0.794-1.193c0.199-0.357,0.363-0.728,0.512-1.103
		c0.022-0.056,0.055-0.108,0.076-0.165c0.324-0.866,0.514-1.772,0.571-2.685c0-0.003,0.001-0.006,0.001-0.009l-146.627-0.007
		l-71.64,276.95c0,0,0,0,0.001,0c1.02-0.169,2.015-0.511,2.942-1.017c0.085-0.047,0.171-0.089,0.255-0.139
		c0.151-0.089,0.297-0.187,0.443-0.285c0.132-0.089,0.263-0.179,0.392-0.276c0.12-0.09,0.238-0.182,0.354-0.278
		c0.157-0.13,0.309-0.268,0.459-0.411c0.087-0.082,0.176-0.162,0.261-0.248c0.233-0.239,0.46-0.49,0.672-0.76l133.456-170.118
		L473.839,121.811z"/>
</g>
<path style="fill:#10C4C4;" d="M257.525,393.598c2.187-0.361,4.268-1.49,5.778-3.414l210.536-268.373
	c1.19-1.516,1.84-3.32,1.954-5.156l-43.734-0.002l0.001,0.002L278.543,312.346L257.525,393.598z"/>
<path style="fill:#21D8DE;" d="M474.379,111.118l-67.6-106.8c-0.866-1.369-2.061-2.459-3.443-3.203L381.06,36.082l50.999,80.572
	l43.734,0.002C475.911,114.749,475.449,112.809,474.379,111.118z"/>
<path style="fill:#0BB2AD;" d="M233.088,370.287l15.609,19.897c2.207,2.813,5.631,3.941,8.828,3.414l21.018-81.252L233.088,370.287z
	"/>
<path style="fill:#FF4C4C;" d="M320.186,455.651H191.814c-13.487,0-24.42-10.933-24.42-24.42l0,0
	c0-41.347,33.518-74.866,74.866-74.866h27.481c41.347,0,74.866,33.518,74.866,74.866l0,0
	C344.606,444.717,333.673,455.651,320.186,455.651z"/>
<path style="fill:#EA2828;" d="M269.741,356.365H242.26c-3.018,0-5.989,0.199-8.914,0.546c37.142,4.41,65.952,35.99,65.952,74.319
	v24.42h20.888c13.487,0,24.42-10.933,24.42-24.42l0,0C344.606,389.883,311.088,356.365,269.741,356.365z"/>
<path style="fill:#2C5871;" d="M404.82,512H107.18c-5.259,0-9.211-4.799-8.203-9.961l15.774-80.723
	c0.767-3.924,4.205-6.755,8.203-6.755h266.092c3.998,0,7.436,2.831,8.203,6.755l15.774,80.723
	C414.031,507.201,410.079,512,404.82,512z"/>
<path style="fill:#1D4859;" d="M413.022,502.039l-15.774-80.723c-0.767-3.924-4.205-6.755-8.203-6.755h-41.158L366.928,512h37.892
	C410.079,512,414.031,507.201,413.022,502.039z"/>
<path style="fill:#E1EFFB;" d="M134.142,479.237l6.401-32.758c0.202-1.034,1.108-1.78,2.161-1.78h226.591
	c1.053,0,1.959,0.746,2.161,1.78l6.401,32.758c0.266,1.36-0.776,2.624-2.161,2.624H136.303
	C134.917,481.861,133.876,480.597,134.142,479.237z"/>
<path style="fill:#C3D8E5;" d="M377.857,479.237l-6.401-32.758c-0.202-1.034-1.108-1.78-2.161-1.78h-45.04l7.261,37.161h44.179
	C377.082,481.861,378.123,480.597,377.857,479.237z"/>
<path style="fill:#10C4C4;" d="M403.336,1.115C402.003,0.397,400.497,0,398.936,0h-40.713l22.838,36.081L403.336,1.115z"/>
<g>
</g>
<g>
</g>
<g>
</g>
<g>
</g>
<g>
</g>
<g>
</g>
<g>
</g>
<g>
</g>
<g>
</g>
<g>
</g>
<g>
</g>
<g>
</g>
<g>
</g>
<g>
</g>
<g>
</g>
</svg>
