<?xml version="1.0" encoding="iso-8859-1"?>
<!-- Generator: Adobe Illustrator 19.0.0, SVG Export Plug-In . SVG Version: 6.00 Build 0)  -->
<svg version="1.1" id="Capa_1" xmlns="http://www.w3.org/2000/svg" xmlns:xlink="http://www.w3.org/1999/xlink" x="0px" y="0px"
	 viewBox="0 0 512 512" style="enable-background:new 0 0 512 512;" xml:space="preserve">
<path style="fill:#FF4C4C;" d="M170.637,40.481L1.292,181.904c-1.839,1.536-1.692,4.406,0.294,5.747l63.025,42.537
	c0.549,0.371,0.986,0.886,1.261,1.489l33.294,72.945c0.987,2.163,3.762,2.792,5.585,1.266l169.502-141.865L170.637,40.481z"/>
<polygon style="fill:#EA2828;" points="135.048,70.202 239.184,193.374 274.249,164.027 170.144,40.893 "/>
<path style="fill:#2D5872;" d="M345.527,236.869L171.361,29.272c-2.741-3.269-7.614-3.697-10.885-0.955
	c-3.269,2.741-3.697,7.615-0.955,10.884l174.145,207.572L345.527,236.869z"/>
<path style="fill:#FED9A8;" d="M411.644,433.054l-48.819,3.508l-45.642,46.861c-1.287,1.322-3.054,2.067-4.899,2.067H151.74
	c-6.53,0-9.345-8.279-4.168-12.259L295.278,359.66l48.184-80.314c8.076-13.462,26.752-15.54,37.59-4.183l90.413,69.265
	c13.666,10.469,14.512,30.76,1.766,42.331l-38.002,34.499C428.607,427.346,420.418,431.443,411.644,433.054z"/>
<path style="fill:#F4C28C;" d="M471.464,344.427l-22.105-16.934c2.377,9.467-0.293,20.007-8.205,27.19l-38.002,34.499
	c-6.62,6.089-14.81,10.186-23.584,11.797l-48.819,3.508l-78.896,81.003h60.432c1.845,0,3.611-0.745,4.899-2.067l45.642-46.861
	l48.819-3.508c8.774-1.611,16.963-5.708,23.584-11.797l38.002-34.499C485.976,375.187,485.13,354.897,471.464,344.427z"/>
<path style="fill:#AF8A82;" d="M477.233,375.179L347.32,219.86c-2.592-3.098-7.204-3.511-10.304-0.922l-21.181,17.689
	c-3.104,2.592-3.517,7.21-0.922,10.312l129.951,155.363c2.596,3.103,7.216,3.512,10.316,0.912l21.144-17.734
	C479.416,382.886,479.824,378.276,477.233,375.179z"/>
<path style="fill:#E8D06B;" d="M402.652,305.011l9.124,9.814c-5.137,0.548-10.4-1.196-14.124-5.202l-8.301-8.929
	C394.122,299.815,399.166,301.262,402.652,305.011z"/>
<path style="fill:#F4C28C;" d="M453.437,385.149L453.437,385.149c7.375,7.944,19.793,8.403,27.734,1.026l24.562-22.819
	c7.937-7.374,8.396-19.785,1.025-27.724l0,0c-7.375-7.944-19.793-8.403-27.734-1.026l-24.562,22.819
	C446.525,364.798,446.066,377.209,453.437,385.149z"/>
<path style="fill:#FED9A8;" d="M454.462,357.425l24.562-22.819c7.941-7.377,20.36-6.918,27.734,1.026l0,0
	c4.276,4.606,5.911,10.717,4.986,16.476c-7.472-6.366-18.692-6.272-26.059,0.573L461.123,375.5
	c-3.332,3.096-5.341,7.08-6.011,11.248c-0.581-0.495-1.143-1.025-1.675-1.598l0,0C446.066,377.209,446.525,364.798,454.462,357.425z
	"/>
<path style="fill:#F4C28C;" d="M433.759,349.741L433.759,349.741c7.486,8.064,20.092,8.53,28.153,1.041l24.128-22.415
	c8.057-7.485,8.523-20.083,1.041-28.143l0,0c-7.486-8.064-20.092-8.53-28.153-1.041L434.8,321.598
	C426.743,329.083,426.277,341.682,433.759,349.741z"/>
<path style="fill:#FED9A8;" d="M434.8,321.598l24.128-22.415c8.061-7.489,20.667-7.023,28.153,1.041l0,0
	c4.288,4.619,5.961,10.729,5.094,16.514c-7.584-6.6-19.082-6.55-26.613,0.447L441.434,339.6c-3.439,3.195-5.49,7.322-6.135,11.629
	c-0.533-0.464-1.048-0.959-1.54-1.488l0,0C426.277,341.682,426.743,329.083,434.8,321.598z"/>
<path style="fill:#F4C28C;" d="M406.524,320.803L406.524,320.803c7.486,8.064,20.092,8.53,28.153,1.041l24.128-22.415
	c8.057-7.485,8.523-20.083,1.041-28.143l0,0c-7.486-8.064-20.092-8.53-28.153-1.041l-24.128,22.415
	C399.508,300.145,399.042,312.743,406.524,320.803z"/>
<path style="fill:#FED9A8;" d="M407.565,292.66l24.128-22.415c8.061-7.489,20.667-7.023,28.153,1.041l0,0
	c0.516,0.556,0.991,1.136,1.432,1.732c-4.378,0.307-8.684,2.052-12.149,5.272L425,300.706c-7.501,6.968-8.418,18.367-2.473,26.41
	c-5.805,0.407-11.736-1.716-16.004-6.313l0,0C399.042,312.743,399.508,300.145,407.565,292.66z"/>
<path style="fill:#F4C28C;" d="M380.294,290.78L380.294,290.78c7.486,8.064,20.092,8.53,28.153,1.041l24.128-22.415
	c8.057-7.485,8.523-20.083,1.041-28.143l0,0c-7.486-8.064-20.092-8.53-28.153-1.041l-24.128,22.415
	C373.278,270.122,372.812,282.721,380.294,290.78z"/>
<g>
	<path style="fill:#FED9A8;" d="M381.335,262.638l24.128-22.415c8.061-7.489,20.667-7.023,28.153,1.041l0,0
		c4.284,4.615,5.957,10.716,5.097,16.495c-7.583-6.612-19.091-6.566-26.627,0.436l-24.128,22.415
		c-3.444,3.199-5.496,7.334-6.138,11.648c-0.528-0.461-1.038-0.952-1.526-1.477l0,0
		C372.812,282.721,373.278,270.122,381.335,262.638z"/>
	<path style="fill:#FED9A8;" d="M426.396,306.023l-4.475,4.157c-7.04,6.54-17.903,6.29-24.27-0.558l-11.266-12.118
		c-5.514-5.931-14.934-6.116-20.995-0.413l0,0c3.392,52.476-70.113,62.567-70.113,62.567l31.242-76.848
		c1.926-5.733,5.26-10.926,9.691-15.097l22.189-20.883c10.788-10.153,27.554-9.829,37.377,0.721l31.832,34.19
		C433.99,288.597,433.447,299.473,426.396,306.023z"/>
</g>
<g>
</g>
<g>
</g>
<g>
</g>
<g>
</g>
<g>
</g>
<g>
</g>
<g>
</g>
<g>
</g>
<g>
</g>
<g>
</g>
<g>
</g>
<g>
</g>
<g>
</g>
<g>
</g>
<g>
</g>
</svg>
